<?xml version="1.0" encoding="UTF-8"?> <svg xmlns="http://www.w3.org/2000/svg" width="654" height="280" viewBox="0 0 654 280" fill="none"><g clip-path="url(#clip0_2311_147)"><path d="M160.4 269.599C160.7 268.399 161.1 267.199 161.6 265.999L166.2 254.699H169.9V272.399H167.3V257.799C166.9 258.999 166.5 260.199 166 261.499L161.6 272.399H159.2L154.8 261.399C154.6 260.899 154.4 260.299 154.2 259.699C154 259.099 153.8 258.399 153.6 257.799V272.399H151V254.699H154.6L159.1 265.599C159.5 266.499 160 267.899 160.4 269.599Z" fill="white"></path><path d="M186.6 272.299L186 269.799H185.9C185 270.899 184.1 271.699 183.3 271.999C182.4 272.399 181.3 272.599 180 272.599C178.3 272.599 176.9 272.099 175.9 271.199C174.9 270.299 174.4 268.999 174.4 267.299C174.4 263.699 177.2 261.799 182.9 261.699L185.9 261.599V260.599C185.9 259.299 185.6 258.299 185 257.599C184.4 256.999 183.5 256.599 182.2 256.599C181.3 256.599 180.4 256.699 179.5 256.999C178.7 257.299 177.9 257.599 177.2 257.899L176.3 255.699C177.2 255.199 178.2 254.899 179.2 254.599C180.2 254.299 181.3 254.199 182.3 254.199C184.4 254.199 186 254.699 187.1 255.599C188.2 256.499 188.7 257.999 188.7 260.099V272.199H186.6V272.299ZM180.6 270.299C182.2 270.299 183.5 269.899 184.4 268.999C185.3 268.099 185.8 266.899 185.8 265.299V263.699L183.2 263.799C181.2 263.899 179.7 264.199 178.8 264.799C177.9 265.399 177.4 266.299 177.4 267.499C177.4 268.399 177.7 269.099 178.2 269.599C178.8 270.099 179.6 270.299 180.6 270.299Z" fill="white"></path><path d="M202.5 272.699C200.1 272.699 198.3 271.799 197 270.099H196.8L196.9 270.799C197 271.599 197 272.399 197 272.999V280.299H194.1V254.699H196.5L196.9 257.099H197C197.7 256.099 198.5 255.399 199.4 254.999C200.3 254.599 201.3 254.399 202.5 254.399C204.8 254.399 206.6 255.199 207.9 256.799C209.2 258.399 209.8 260.599 209.8 263.499C209.8 266.399 209.2 268.599 207.9 270.299C206.6 271.999 204.9 272.699 202.5 272.699ZM202.1 256.799C200.3 256.799 199.1 257.299 198.3 258.299C197.5 259.299 197.1 260.799 197.1 262.999V263.599C197.1 265.999 197.5 267.699 198.3 268.799C199.1 269.899 200.4 270.399 202.2 270.399C203.7 270.399 204.8 269.799 205.7 268.599C206.5 267.399 206.9 265.699 206.9 263.599C206.9 261.399 206.5 259.799 205.7 258.599C204.8 257.299 203.6 256.799 202.1 256.799Z" fill="white"></path><path d="M224.9 254.699H228.1L220.5 263.199L228.7 272.399H225.3L217.3 263.399V272.399H214.4V254.699H217.3V263.299L224.9 254.699Z" fill="white"></path><path d="M239.1 272.699C236.4 272.699 234.4 271.899 232.9 270.299C231.4 268.699 230.6 266.499 230.6 263.699C230.6 260.899 231.3 258.599 232.7 256.899C234.1 255.199 236 254.399 238.4 254.399C240.6 254.399 242.4 255.099 243.7 256.599C245 257.999 245.7 259.999 245.7 262.399V264.199H233.6C233.7 266.199 234.2 267.699 235.1 268.799C236 269.899 237.4 270.399 239.2 270.399C240.1 270.399 241 270.299 241.9 270.199C242.7 269.999 243.7 269.699 244.9 269.199V271.699C243.9 272.099 243 272.399 242.1 272.599C241.2 272.799 240.3 272.699 239.1 272.699ZM238.4 256.699C237 256.699 235.9 257.099 235.1 257.999C234.3 258.899 233.8 260.099 233.7 261.699H242.7C242.7 259.999 242.3 258.799 241.6 257.899C240.8 257.099 239.8 256.699 238.4 256.699Z" fill="white"></path><path d="M262.4 257.099H256.6V272.299H253.7V257.099H248V254.699H262.4V257.099Z" fill="white"></path><path d="M268.7 254.699V265.499L268.6 268.599L268.5 269.499L278 254.699H281.6V272.399H278.9V261.999V259.799L279 257.699L269.6 272.499H266V254.799H268.7V254.699Z" fill="white"></path><path d="M290 254.699V262.099H299.6V254.699H302.5V272.399H299.6V264.499H290V272.399H287.1V254.699H290Z" fill="white"></path><path d="M319 257.1H311.1V272.3H308.2V254.6H319V257.1Z" fill="white"></path><path d="M337.7 263.499C337.7 266.399 337 268.599 335.5 270.299C334 271.999 332 272.699 329.4 272.699C327.8 272.699 326.4 272.299 325.1 271.599C323.9 270.899 322.9 269.799 322.2 268.399C321.5 266.999 321.2 265.399 321.2 263.499C321.2 260.599 321.9 258.399 323.4 256.799C324.8 255.199 326.9 254.399 329.5 254.399C332 254.399 334 255.199 335.4 256.899C336.9 258.399 337.7 260.699 337.7 263.499ZM324.3 263.499C324.3 265.699 324.7 267.399 325.6 268.599C326.5 269.799 327.8 270.299 329.5 270.299C331.2 270.299 332.5 269.699 333.4 268.599C334.3 267.399 334.7 265.799 334.7 263.499C334.7 261.199 334.3 259.599 333.4 258.499C332.5 257.399 331.2 256.799 329.5 256.799C326 256.799 324.3 258.999 324.3 263.499Z" fill="white"></path><path d="M356.8 259.1C356.8 260.2 356.5 261.1 355.8 261.7C355.2 262.3 354.2 262.7 353 262.9V263C354.5 263.2 355.6 263.6 356.3 264.3C357 265 357.3 265.9 357.3 267C357.3 268.7 356.7 270 355.5 270.9C354.3 271.8 352.5 272.2 350.2 272.2H342.2V254.5H350.1C354.6 254.7 356.8 256.1 356.8 259.1ZM354 259.4C354 258.6 353.7 258 353 257.6C352.4 257.2 351.4 257.1 350.1 257.1H345.1V261.9H349.5C351.1 261.9 352.2 261.7 352.9 261.3C353.6 260.9 354 260.3 354 259.4ZM354.5 267C354.5 266 354.1 265.3 353.3 264.9C352.5 264.5 351.4 264.3 349.9 264.3H345.1V270H349.9C353 270 354.5 269 354.5 267Z" fill="white"></path><path d="M372.2 272.299L371.6 269.799H371.5C370.6 270.899 369.7 271.699 368.9 271.999C368 272.399 366.9 272.599 365.6 272.599C363.9 272.599 362.5 272.099 361.5 271.199C360.5 270.299 360 268.999 360 267.299C360 263.699 362.8 261.799 368.5 261.699L371.5 261.599V260.599C371.5 259.299 371.2 258.299 370.6 257.599C370 256.999 369.1 256.599 367.8 256.599C366.9 256.599 366 256.699 365.1 256.999C364.3 257.299 363.5 257.599 362.8 257.899L361.9 255.699C362.8 255.199 363.8 254.899 364.8 254.599C365.8 254.299 366.9 254.199 367.9 254.199C370 254.199 371.6 254.699 372.7 255.599C373.8 256.499 374.3 257.999 374.3 260.099V272.199H372.2V272.299ZM366.2 270.299C367.8 270.299 369.1 269.899 370 268.999C370.9 268.099 371.4 266.899 371.4 265.299V263.699L368.8 263.799C366.8 263.899 365.3 264.199 364.4 264.799C363.5 265.399 363 266.299 363 267.499C363 268.399 363.3 269.099 363.8 269.599C364.4 270.099 365.2 270.299 366.2 270.299Z" fill="white"></path><path d="M399.3 272.299L398.7 269.799H398.6C397.7 270.899 396.8 271.699 396 271.999C395.1 272.399 394 272.599 392.7 272.599C391 272.599 389.6 272.099 388.6 271.199C387.6 270.299 387.1 268.999 387.1 267.299C387.1 263.699 389.9 261.799 395.6 261.699L398.6 261.599V260.599C398.6 259.299 398.3 258.299 397.7 257.599C397.1 256.999 396.2 256.599 394.9 256.599C394 256.599 393.1 256.699 392.2 256.999C391.4 257.299 390.6 257.599 389.9 257.899L389 255.699C389.9 255.199 390.9 254.899 391.9 254.599C392.9 254.299 394 254.199 395 254.199C397.1 254.199 398.7 254.699 399.8 255.599C400.9 256.499 401.4 257.999 401.4 260.099V272.199H399.3V272.299ZM393.3 270.299C394.9 270.299 396.2 269.899 397.1 268.999C398 268.099 398.5 266.899 398.5 265.299V263.699L395.9 263.799C393.9 263.899 392.4 264.199 391.5 264.799C390.6 265.399 390.1 266.299 390.1 267.499C390.1 268.399 390.4 269.099 390.9 269.599C391.5 270.099 392.3 270.299 393.3 270.299Z" fill="white"></path><path d="M417.7 257.1H409.8V272.3H406.9V254.6H417.7V257.1Z" fill="white"></path><path d="M428.5 272.699C425.8 272.699 423.8 271.899 422.3 270.299C420.8 268.699 420 266.499 420 263.699C420 260.899 420.7 258.599 422.1 256.899C423.5 255.199 425.4 254.399 427.8 254.399C430 254.399 431.8 255.099 433.1 256.599C434.4 257.999 435.1 259.999 435.1 262.399V264.199H423C423.1 266.199 423.6 267.699 424.5 268.799C425.4 269.899 426.8 270.399 428.6 270.399C429.5 270.399 430.4 270.299 431.3 270.199C432.1 269.999 433.1 269.699 434.3 269.199V271.699C433.3 272.099 432.4 272.399 431.5 272.599C430.6 272.799 429.7 272.699 428.5 272.699ZM427.8 256.699C426.4 256.699 425.3 257.099 424.5 257.999C423.7 258.899 423.2 260.099 423.1 261.699H432.1C432.1 259.999 431.7 258.799 431 257.899C430.2 257.099 429.2 256.699 427.8 256.699Z" fill="white"></path><path d="M442.5 254.699V262.099H452.1V254.699H455V272.399H452.1V264.499H442.5V272.399H439.6V254.699H442.5Z" fill="white"></path><path d="M478.1 278.499H475.3V272.399H460.7V254.699H463.6V269.899H472.8V254.699H475.7V269.999H478.2V278.499H478.1Z" fill="white"></path><path d="M481.3 249.9C481.3 249.3 481.5 248.8 481.8 248.5C482.1 248.2 482.5 248.1 483 248.1C483.5 248.1 483.8 248.2 484.2 248.5C484.5 248.8 484.7 249.3 484.7 249.9C484.7 250.5 484.5 251 484.2 251.3C483.9 251.6 483.5 251.8 483 251.8C482.5 251.8 482.1 251.6 481.8 251.3C481.4 251 481.3 250.5 481.3 249.9ZM484.4 272.3H481.5V254.6H484.4V272.3Z" fill="white"></path><path d="M491.1 272.299H487.7L492.7 264.899C491.3 264.599 490.3 263.899 489.6 263.099C488.9 262.199 488.6 261.199 488.6 259.899C488.6 258.299 489.2 256.999 490.3 256.099C491.4 255.199 492.9 254.699 494.9 254.699H502.8V272.399H500V265.399H495.7L491.1 272.299ZM491.5 259.899C491.5 261.899 492.9 262.899 495.8 262.899H500V257.099H495.3C494.1 257.099 493.1 257.299 492.5 257.799C491.8 258.299 491.5 258.999 491.5 259.899Z" fill="white"></path><path fill-rule="evenodd" clip-rule="evenodd" d="M654 27.2002H627V0.200195L606.8 20.4002V47.4002H633.8L654 27.2002ZM580 27.2002H553.1L573.3 47.4002H600.2V20.5002L580 0.300201V27.2002ZM606.8 54.1002V81.0002L627 101.2V74.3002H653.9L633.7 54.1002H606.8ZM553.1 74.3002H580V101.2L600.2 81.0002V54.1002H573.3L553.1 74.3002Z" fill="white"></path><path d="M511.8 103.5C513 102.3 514.5 101.7 516.2 101.7C518 101.7 519.5 102.3 520.7 103.5C521.9 104.7 522.4 106.2 522.4 108V176.6C522.4 178.3 521.8 179.8 520.7 181C519.5 182.2 518 182.8 516.2 182.8C514.5 182.8 513 182.2 511.8 181C510.6 179.8 510 178.3 510 176.6V148.2H454.9V176.6C454.9 178.3 454.3 179.8 453.1 181C451.9 182.2 450.5 182.8 448.6 182.8C446.9 182.8 445.4 182.2 444.2 181C443 179.8 442.4 178.3 442.4 176.6V108C442.4 106.2 443 104.7 444.2 103.5C445.4 102.3 446.9 101.7 448.6 101.7C450.4 101.7 451.9 102.3 453.1 103.5C454.3 104.7 454.9 106.2 454.9 108V137H510V108C510 106.1 510.6 104.6 511.8 103.5Z" fill="white"></path><path d="M542.4 103.5C543.6 102.3 545.1 101.7 546.8 101.7C548.6 101.7 550.1 102.3 551.3 103.5C552.5 104.7 553.1 106.2 553.1 108V176.6C553.1 178.3 552.5 179.8 551.3 181C550.1 182.2 548.7 182.8 546.8 182.8C545.1 182.8 543.6 182.2 542.4 181C541.2 179.8 540.6 178.3 540.6 176.6V108C540.6 106.1 541.2 104.6 542.4 103.5Z" fill="white"></path><path d="M96 62.5998C105.7 68.0998 113.3 75.7998 118.7 85.3998C124.2 95.0998 126.9 106 126.9 118.1C126.9 130.2 124.2 141.2 118.7 150.9C113.2 160.6 105.7 168.3 96 173.8C86.3 179.3 75.5 182.1 63.5 182.1C51.4 182.1 40.5 179.3 30.9 173.8C21.2 168.3 13.7 160.6 8.2 150.9C2.7 141.2 0 130.2 0 118.1C0 106 2.7 94.9998 8.2 85.3998C13.7 75.6998 21.2 68.0998 30.9 62.5998C40.6 57.0998 51.4 54.2998 63.5 54.2998C75.5 54.2998 86.3 57.0998 96 62.5998ZM37.1 72.9998C29.3 77.5998 23.2 83.7998 18.7 91.7998C14.2 99.6998 12 108.5 12 118.2C12 128 14.2 136.9 18.7 144.8C23.2 152.7 29.3 159 37.1 163.6C44.9 168.2 53.7 170.5 63.4 170.5C73 170.5 81.8 168.2 89.6 163.6C97.4 159 103.5 152.8 108 144.8C112.5 136.9 114.7 128 114.7 118.2C114.7 108.5 112.5 99.6998 108 91.7998C103.5 83.8998 97.4 77.5998 89.6 72.9998C81.8 68.3998 73.1 66.0998 63.4 66.0998C53.7 66.0998 44.9 68.3998 37.1 72.9998Z" fill="white"></path><path d="M422.5 104.3C421.3 103.1 419.9 102.5 418 102.5C416.3 102.5 414.8 103.1 413.6 104.3C412.4 105.5 411.8 107 411.8 108.8V113.9C409.4 111.4 406.6 109.2 403.4 107.4C397.3 103.9 390.5 102.2 382.9 102.2C375.3 102.2 368.4 103.9 362.4 107.4C356.3 110.9 351.6 115.7 348.1 121.8C344.7 127.9 342.9 134.8 342.9 142.4C342.9 150 344.6 156.9 348.1 163.1C351.5 169.2 356.3 174.1 362.4 177.5C368.5 181 375.3 182.7 382.9 182.7C390.4 182.7 397.3 181 403.4 177.5C406.6 175.7 409.4 173.5 411.8 171V176C411.8 177.7 412.4 179.2 413.6 180.4C414.8 181.6 416.3 182.2 418 182.2C419.8 182.2 421.3 181.6 422.5 180.4C423.7 179.2 424.3 177.7 424.3 176V108.7C424.2 107 423.6 105.5 422.5 104.3ZM408 157.4C405.5 161.9 402 165.4 397.6 168C393.2 170.6 388.3 171.9 382.8 171.9C377.3 171.9 372.3 170.6 367.9 168C363.5 165.4 360 161.9 357.5 157.4C355 152.9 353.7 147.9 353.7 142.4C353.7 136.9 355 132 357.5 127.5C360 123 363.5 119.5 367.9 116.9C372.3 114.3 377.3 113 382.8 113C388.2 113 393.2 114.3 397.6 116.9C402 119.5 405.5 123 408 127.5C410.5 132 411.8 137 411.8 142.4C411.8 147.9 410.6 152.9 408 157.4Z" fill="white"></path><path d="M319.5 121.6C316.1 115.5 311.3 110.6 305.2 107.2C299.1 103.7 292.3 102 284.7 102C277.2 102 270.3 103.7 264.2 107.2C261 109 258.2 111.2 255.8 113.7V108.7C255.8 107 255.2 105.5 254 104.3C252.8 103.1 251.3 102.5 249.6 102.5C247.8 102.5 246.3 103.1 245.1 104.3C243.9 105.5 243.3 107 243.3 108.7V213.8C243.3 215.6 243.9 217.1 245.1 218.3C246.3 219.5 247.7 220.1 249.6 220.1C251.3 220.1 252.8 219.5 254 218.3C255.2 217.1 255.8 215.6 255.8 213.8V170.9C258.2 173.4 261 175.6 264.2 177.4C270.3 180.9 277.1 182.6 284.7 182.6C292.3 182.6 299.2 180.9 305.2 177.4C311.3 173.9 316 169.1 319.5 163C322.9 156.9 324.7 150 324.7 142.4C324.7 134.6 323 127.8 319.5 121.6ZM309.9 157.2C307.4 161.7 303.9 165.2 299.5 167.8C295.1 170.4 290.1 171.7 284.6 171.7C279.2 171.7 274.2 170.4 269.8 167.8C265.4 165.2 261.9 161.7 259.4 157.2C256.9 152.7 255.6 147.7 255.6 142.3C255.6 136.8 256.9 131.8 259.4 127.3C261.9 122.8 265.4 119.3 269.8 116.7C274.2 114.1 279.1 112.8 284.6 112.8C290.1 112.8 295.1 114.1 299.5 116.7C303.9 119.3 307.4 122.8 309.9 127.3C312.4 131.8 313.7 136.8 313.7 142.3C313.7 147.8 312.5 152.7 309.9 157.2Z" fill="white"></path><path d="M220 121.6C216.6 115.5 211.8 110.7 205.7 107.2C199.6 103.7 192.8 102 185.2 102C177.7 102 170.8 103.7 164.7 107.2C162.8 108.3 161.1 109.5 159.4 110.8C161.1 105.4 163.6 100.8 167.1 97.1003C173.2 90.6003 182 87.0003 193.5 86.1003L214.5 84.2003C217 84.0003 219 81.9003 219.1 79.3003V78.5003C219.2 75.6003 216.7 73.2003 213.8 73.4003L188.6 75.0003C174.2 75.9003 163.5 80.3003 156.4 88.0003C149.3 95.7003 145.6 107.3 145.2 122.6C145.1 127.7 145 140.4 145.1 144C145.1 144.7 145.2 145.5 145.3 146.3C145.3 146.8 145.4 147.3 145.4 147.8V147.9C146.1 153.3 147.7 158.3 150.2 162.8C153.6 168.9 158.4 173.8 164.5 177.2C170.6 180.7 177.4 182.4 185 182.4C192.6 182.4 199.5 180.7 205.5 177.2C211.6 173.7 216.3 168.9 219.8 162.8C223.2 156.7 225 149.8 225 142.1C225.2 134.5 223.4 127.7 220 121.6ZM209 156.5C206.6 160.8 203.4 164.1 199.2 166.6C195.1 169.1 190.4 170.3 185.2 170.3C180.1 170.3 175.4 169.1 171.3 166.6C167.2 164.1 163.9 160.8 161.5 156.5C159.1 152.2 157.9 147.4 157.9 142.2C157.9 137 159.1 132.2 161.5 128C163.9 123.7 167.1 120.4 171.3 117.9C175.4 115.4 180.1 114.2 185.2 114.2C190.4 114.2 195.1 115.4 199.2 117.9C203.3 120.4 206.6 123.7 209 128C211.4 132.3 212.6 137 212.6 142.2C212.5 147.5 211.3 152.3 209 156.5Z" fill="white"></path></g><defs><clipPath id="clip0_2311_147"><rect width="654" height="280" fill="white"></rect></clipPath></defs></svg> 