<?xml version="1.0" encoding="UTF-8"?> <svg xmlns="http://www.w3.org/2000/svg" width="374" height="80" viewBox="0 0 374 80" fill="none"><path d="M188.058 25.4379H189.328V14.0781H193.222V12.9001H184.164V14.0781H188.058V25.4379ZM205.497 25.4379H206.766V12.9001H205.497V18.3696H198.64V12.9001H197.37V25.4379H198.64V19.5477H205.497V25.4379ZM219.38 24.2599H213.285V19.7159H218.872V18.5379H213.285V14.0781H219.295V12.9001H212.015V25.4379H219.38V24.2599ZM225.136 20.4733H228.691L231.654 25.5221H233.093L230.046 20.305C230.892 20.0525 231.485 19.6318 231.993 18.9586C232.501 18.2855 232.755 17.5281 232.755 16.6867C232.755 15.6769 232.416 14.7513 231.654 13.994C230.892 13.2367 230.046 12.9001 228.945 12.9001H223.866V25.4379H225.136V20.4733ZM225.136 14.0781H228.945C229.623 14.0781 230.215 14.3306 230.723 14.8354C231.231 15.3403 231.485 15.9293 231.485 16.6867C231.485 17.3598 231.231 17.9489 230.723 18.5379C230.215 19.0428 229.623 19.2952 228.945 19.2952H225.136V14.0781ZM238.511 14.8354L242.913 22.1562H243.082L247.484 14.8354V25.5221H248.754V12.9001H247.146L242.913 19.8842L238.68 12.9001H237.072V25.4379H238.342V14.8354H238.511ZM255.272 22.4086H261.283L262.468 25.5221H263.822L258.912 12.9001H257.643L252.817 25.4379H254.172L255.272 22.4086ZM258.235 14.4989L260.775 21.2306H255.696L258.235 14.4989ZM274.743 24.2599H268.986V12.9001H267.716V25.4379H274.743V24.2599ZM286.848 19.7159H292.435V18.5379H286.848V14.0781H292.858V12.9001H285.578V25.4379H292.943V24.2599H286.848V19.7159ZM305.641 23.166L298.615 12.9842H297.514V25.5221H298.784V15.2562L305.81 25.4379H306.911V12.9001H305.641V23.166ZM313.344 19.7159H318.931V18.5379H313.344V14.0781H319.354V12.9001H312.074V25.4379H319.439V24.2599H313.344V19.7159ZM332.052 18.9586C332.56 18.2855 332.814 17.5281 332.814 16.6867C332.814 15.6769 332.476 14.7513 331.714 13.994C330.952 13.2367 330.105 12.9001 329.005 12.9001H323.926V25.4379H325.196V20.3891H328.751L331.714 25.4379H333.153L330.105 20.2208C330.952 20.0525 331.629 19.6318 332.052 18.9586ZM325.28 19.2952V14.1623H329.09C329.767 14.1623 330.359 14.4147 330.867 14.9196C331.375 15.4245 331.629 16.0135 331.629 16.7708C331.629 17.444 331.375 18.033 330.867 18.622C330.359 19.1269 329.767 19.3794 329.09 19.3794H325.28V19.2952ZM343.142 20.6416H348.136C347.967 21.7355 347.544 22.6611 346.697 23.3343C345.851 24.0074 344.666 24.4282 343.311 24.4282C341.703 24.4282 340.433 23.9233 339.417 22.9135C338.401 21.9038 337.893 20.6416 337.893 19.1269C337.893 17.6964 338.401 16.4342 339.417 15.3403C340.433 14.3306 341.703 13.8257 343.311 13.8257C344.242 13.8257 345.089 14.0781 345.851 14.4989C346.613 14.9196 347.205 15.5928 347.628 16.3501L348.729 15.6769C348.221 14.7513 347.459 13.994 346.443 13.4049C345.427 12.8159 344.412 12.5635 343.227 12.5635C341.28 12.5635 339.756 13.1525 338.486 14.4147C337.216 15.6769 336.624 17.1915 336.624 19.0428C336.624 20.8099 337.216 22.4086 338.486 23.6708C339.756 24.933 341.28 25.5221 343.227 25.5221C345.089 25.5221 346.613 25.0172 347.713 23.9233C348.814 22.8294 349.406 21.5672 349.406 19.9684V19.2952H343.057V20.6416H343.142ZM360.75 12.9001L357.025 19.0428L353.216 12.9001H351.776L356.348 20.305V25.5221H357.617V20.3891L362.189 12.9842H360.75V12.9001ZM186.45 36.1246C185.18 37.3868 184.587 38.9014 184.587 40.7526C184.587 42.5197 185.18 44.1185 186.45 45.3807C187.72 46.6429 189.243 47.2319 191.19 47.2319C192.375 47.2319 193.391 46.9795 194.407 46.3905C195.423 45.8014 196.185 45.0441 196.693 44.1185L195.592 43.5295C195.169 44.2868 194.576 44.8758 193.815 45.3807C193.053 45.8014 192.206 46.0539 191.275 46.0539C189.667 46.0539 188.397 45.549 187.381 44.5392C186.365 43.5295 185.857 42.2673 185.857 40.7526C185.857 39.238 186.365 38.0599 187.381 36.966C188.397 35.9563 189.667 35.4514 191.275 35.4514C192.206 35.4514 193.053 35.7038 193.815 36.1246C194.576 36.5453 195.169 37.2185 195.592 37.9758L196.693 37.3026C196.185 36.377 195.423 35.6197 194.407 35.0306C193.391 34.4416 192.375 34.1892 191.19 34.1892C189.243 34.1892 187.72 34.8624 186.45 36.1246ZM208.121 45.8014H202.365V34.4416H201.095V46.9795H208.121V45.8014ZM221.327 34.4416H220.057V42.688C220.057 43.6978 219.718 44.5392 219.126 45.0441C218.533 45.6331 217.687 45.8856 216.586 45.8856C215.486 45.8856 214.639 45.6331 214.047 45.0441C213.454 44.4551 213.115 43.6978 213.115 42.688V34.4416H211.846V42.688C211.846 44.0343 212.269 45.1283 213.115 45.9697C213.962 46.8112 215.147 47.1478 216.501 47.1478C217.856 47.1478 219.041 46.727 219.888 45.9697C220.734 45.1283 221.157 44.0343 221.157 42.688V34.4416H221.327ZM232.924 41.0051C232.755 40.9209 232.501 40.7526 232.078 40.5843C231.739 40.416 231.4 40.3319 231.231 40.2477L230.215 39.9112C229.199 39.5746 228.522 39.238 228.099 38.9855C227.676 38.649 227.422 38.2282 227.422 37.555C227.422 36.8819 227.676 36.377 228.099 35.9563C228.607 35.5355 229.199 35.3672 229.961 35.3672C231.485 35.3672 232.501 36.0404 233.093 37.4709L234.194 36.8819C233.855 36.0404 233.263 35.4514 232.585 34.9465C231.824 34.4416 230.977 34.1892 230.046 34.1892C228.945 34.1892 228.014 34.5258 227.252 35.1148C226.491 35.7038 226.152 36.5453 226.152 37.6392C226.152 38.7331 226.66 39.5746 227.591 40.1636C228.014 40.416 228.861 40.7526 230.215 41.1734C231.316 41.5099 232.162 41.8465 232.585 42.1831C233.093 42.5197 233.347 43.0246 233.347 43.6978C233.347 44.3709 233.093 44.96 232.585 45.3807C232.078 45.8014 231.316 45.9697 230.385 45.9697C229.453 45.9697 228.691 45.7173 228.014 45.2965C227.422 44.8758 226.998 44.2868 226.744 43.4453L225.644 44.0343C225.983 44.96 226.575 45.7173 227.337 46.3063C228.184 46.8112 229.115 47.1478 230.3 47.1478C231.57 47.1478 232.585 46.8112 233.347 46.2222C234.109 45.549 234.533 44.7075 234.533 43.6978C234.533 43.1087 234.363 42.6039 234.109 42.099C233.94 41.7624 233.517 41.4258 232.924 41.0051ZM237.58 35.6197H241.474V46.9795H242.744V35.6197H246.638V34.4416H237.58V35.6197ZM251.971 41.2575H257.558V40.0795H251.971V35.6197H257.981V34.4416H250.701V46.9795H258.066V45.8014H251.971V41.2575ZM270.679 40.5002C271.187 39.827 271.441 39.0697 271.441 38.2282C271.441 37.2185 271.102 36.2928 270.341 35.5355C269.579 34.7782 268.732 34.4416 267.632 34.4416H262.553V46.9795H263.822V41.9307H267.378L270.341 46.9795H271.78L268.732 41.7624C269.494 41.5941 270.171 41.0892 270.679 40.5002ZM263.907 40.7526V35.6197H267.716C268.394 35.6197 268.986 35.8721 269.494 36.377C270.002 36.8819 270.256 37.4709 270.256 38.2282C270.256 38.9014 270.002 39.4904 269.494 40.0795C268.986 40.5843 268.394 40.8368 267.716 40.8368H263.907V40.7526ZM191.106 55.7307C189.243 55.7307 187.72 56.4039 186.45 57.6661C185.18 58.9283 184.587 60.443 184.587 62.2942C184.587 64.0613 185.18 65.6601 186.45 66.9223C187.72 68.1845 189.243 68.7735 191.106 68.7735C192.968 68.7735 194.492 68.1845 195.762 66.9223C197.031 65.6601 197.624 64.1454 197.624 62.2942C197.624 60.5271 197.031 58.9283 195.762 57.6661C194.492 56.3198 192.968 55.7307 191.106 55.7307ZM194.83 65.9966C193.815 67.0064 192.545 67.5113 191.106 67.5113C189.582 67.5113 188.397 67.0064 187.381 65.9966C186.365 64.9869 185.857 63.7247 185.857 62.21C185.857 60.7795 186.365 59.5173 187.381 58.5076C188.397 57.4978 189.667 56.9929 191.106 56.9929C192.629 56.9929 193.815 57.4978 194.83 58.5076C195.846 59.5173 196.354 60.7795 196.354 62.21C196.354 63.7247 195.846 64.9869 194.83 65.9966ZM202.111 68.521H203.38V62.9674H208.967V61.7893H203.38V57.1612H209.221V55.9832H202.111V68.521ZM228.353 64.2296C228.353 65.2393 228.014 66.0808 227.422 66.5857C226.829 67.1747 225.983 67.4271 224.882 67.4271C223.782 67.4271 222.935 67.1747 222.343 66.5857C221.75 65.9966 221.411 65.2393 221.411 64.2296V55.9832H220.142V64.2296C220.142 65.5759 220.565 66.6698 221.411 67.5113C222.258 68.3527 223.443 68.6893 224.797 68.6893C226.152 68.6893 227.337 68.2686 228.184 67.5113C229.03 66.6698 229.453 65.5759 229.453 64.2296V55.9832H228.184V64.2296H228.353ZM243.336 55.9832H241.643L235.887 61.7052V55.9832H234.617V68.521H235.887V62.4625L241.813 68.521H243.506L237.241 62.0417L243.336 55.9832ZM255.611 61.9576C256.119 61.2844 256.373 60.5271 256.373 59.6856C256.373 58.6759 256.034 57.7503 255.272 56.9929C254.511 56.2356 253.664 55.899 252.564 55.899H247.484V68.4369H248.754V63.3881H252.31L255.272 68.4369H256.711L253.664 63.2198C254.426 63.0515 255.103 62.6308 255.611 61.9576ZM248.754 62.2942V57.1612H252.564C253.241 57.1612 253.833 57.4137 254.341 57.9186C254.849 58.4234 255.103 59.0125 255.103 59.7698C255.103 60.443 254.849 61.032 254.341 61.621C253.833 62.1259 253.241 62.3783 252.564 62.3783H248.754V62.2942ZM264.415 55.9832L259.59 68.521H260.944L262.129 65.4076H268.14L269.325 68.521H270.679L265.854 55.9832H264.415ZM262.553 64.2296L265.092 57.4978L267.632 64.2296H262.553ZM274.573 68.521H275.843V55.9832H274.573V68.521ZM289.218 66.1649L282.192 55.9832H281.091V68.521H282.361V58.2551L289.387 68.4369H290.488V55.9832H289.218V66.1649ZM296.922 62.7149H302.509V61.5369H296.922V57.0771H302.932V55.899H295.652V68.4369H303.017V67.2588H296.922V62.7149ZM158.514 47.5685C158.514 51.6917 156.313 53.7112 151.827 53.7112C147.34 53.7112 145.139 51.6917 145.139 47.5685V12.6476H129.309V49.3356C129.309 55.2259 131.426 59.9381 135.574 63.5564C139.722 67.1747 145.139 69.0259 151.912 69.0259C158.599 69.0259 164.017 67.1747 168.249 63.5564C172.397 59.9381 174.514 55.2259 174.514 49.3356V12.6476H158.684V47.5685H158.514ZM11.896 12.6476V28.2989H25.1865V69.0259H41.3551L41.2705 12.7318L11.896 12.6476Z" fill="white"></path><path fill-rule="evenodd" clip-rule="evenodd" d="M52.5294 12.647C56.8467 12.647 60.4021 16.1811 60.4021 20.4726C60.4021 24.7641 56.8467 28.2983 52.5294 28.2983C48.2121 28.2983 44.6567 24.7641 44.6567 20.4726C44.6567 16.1811 48.2121 12.647 52.5294 12.647Z" fill="#D71F27"></path><path d="M107.384 65.1548C111.617 62.7987 114.918 59.6012 117.289 55.5621L103.913 47.9048C103.067 49.6719 101.712 51.1023 99.8501 52.1121C97.9878 53.1219 95.9561 53.6267 93.6705 53.6267C89.9458 53.6267 86.8136 52.3645 84.4433 49.9243C82.0731 47.484 80.8879 44.3706 80.8879 40.584C80.8879 36.7133 82.0731 33.5998 84.4433 31.2437C86.8983 28.8035 89.9458 27.5413 93.6705 27.5413C95.9561 27.5413 97.9878 28.0461 99.8501 29.0559C101.712 30.0657 103.067 31.4962 103.913 33.1791L117.289 25.5217C114.918 21.5668 111.617 18.3693 107.384 16.0132C103.152 13.6571 98.5803 12.479 93.6705 12.479C85.5438 12.479 78.7716 15.1717 73.4385 20.5571C68.1054 25.9425 65.3965 32.6742 65.3965 40.584C65.3965 48.4938 68.1054 55.1414 73.4385 60.6109C78.687 65.9963 85.4592 68.689 93.6705 68.689C98.5803 68.689 103.152 67.511 107.384 65.1548Z" fill="#D71F27"></path></svg> 